<svg width="48" height="48" viewBox="0 0 48 48" fill="none" xmlns="http://www.w3.org/2000/svg">
<rect width="48" height="48" rx="6" fill="#E5B768"/>
<path d="M35.25 21.5V19C35.2496 18.5616 35.1338 18.131 34.9144 17.7515C34.695 17.3719 34.3797 17.0567 34 16.8375L25.25 11.8375C24.87 11.6181 24.4388 11.5026 24 11.5026C23.5612 11.5026 23.13 11.6181 22.75 11.8375L14 16.8375C13.6203 17.0567 13.305 17.3719 13.0856 17.7515C12.8662 18.131 12.7504 18.5616 12.75 19V29C12.7504 29.4384 12.8662 29.869 13.0856 30.2485C13.305 30.6281 13.6203 30.9433 14 31.1625L22.75 36.1625C23.13 36.3819 23.5612 36.4974 24 36.4974C24.4388 36.4974 24.87 36.3819 25.25 36.1625L27.75 34.7375" stroke="#00007D" stroke-width="2" stroke-linecap="round" stroke-linejoin="round"/>
<path d="M18.375 14.3375L29.625 20.775" stroke="#00007D" stroke-width="2" stroke-linecap="round" stroke-linejoin="round"/>
<path d="M13.1125 17.75L24 24L34.8875 17.75" stroke="#00007D" stroke-width="2" stroke-linecap="round" stroke-linejoin="round"/>
<path d="M24 36.5V24" stroke="#00007D" stroke-width="2" stroke-linecap="round" stroke-linejoin="round"/>
<path d="M32.125 31.5C33.8509 31.5 35.25 30.1009 35.25 28.375C35.25 26.6491 33.8509 25.25 32.125 25.25C30.3991 25.25 29 26.6491 29 28.375C29 30.1009 30.3991 31.5 32.125 31.5Z" stroke="#00007D" stroke-width="2" stroke-linecap="round" stroke-linejoin="round"/>
<path d="M34.3374 30.5875L36.4999 32.75" stroke="#00007D" stroke-width="2" stroke-linecap="round" stroke-linejoin="round"/>
</svg>
